<svg xmlns="http://www.w3.org/2000/svg" viewBox="0 0 1200 675" role="img" aria-label="A risky user alert queue with a dismiss button that fails to clear a resolved false positive">
  <defs>
    <linearGradient id="identity-protection-hero-bg" x1="0" y1="0" x2="1" y2="1">
      <stop offset="0" stop-color="#071633"/><stop offset="1" stop-color="#002863"/>
    </linearGradient>
  </defs>
  <rect width="1200" height="675" fill="url(#identity-protection-hero-bg)"/>
  <g stroke="#3366FF" stroke-opacity="0.08" stroke-width="1">
    <path d="M0 135H1200M0 270H1200M0 405H1200M0 540H1200"/>
    <path d="M200 0V675M400 0V675M600 0V675M800 0V675M1000 0V675"/>
  </g>
  <rect x="330" y="190" width="420" height="46" rx="8" fill="#0e2a5c" stroke="#FF6B6B" stroke-width="2" opacity="0.9"/>
  <text x="350" y="219" fill="#eaf2ff" font-family="Segoe UI, Arial, sans-serif" font-size="14" font-weight="600">Risky sign-in — unresolved</text>
  <g transform="translate(700 198)" stroke="#9db8ff" stroke-width="2.5" opacity="0.5">
    <circle cx="15" cy="15" r="15" fill="none"/><line x1="8" y1="8" x2="22" y2="22"/><line x1="22" y1="8" x2="8" y2="22"/>
  </g>
  <rect x="330" y="260" width="420" height="46" rx="8" fill="#0e2a5c" stroke="#FF6B6B" stroke-width="2" opacity="0.9"/>
  <text x="350" y="289" fill="#eaf2ff" font-family="Segoe UI, Arial, sans-serif" font-size="14" font-weight="600">Leaked credential match — unresolved</text>
  <g transform="translate(700 268)" stroke="#9db8ff" stroke-width="2.5" opacity="0.5">
    <circle cx="15" cy="15" r="15" fill="none"/><line x1="8" y1="8" x2="22" y2="22"/><line x1="22" y1="8" x2="8" y2="22"/>
  </g>
  <rect x="330" y="330" width="420" height="46" rx="8" fill="#0e2a5c" stroke="#FF6B6B" stroke-width="2" opacity="0.9"/>
  <text x="350" y="359" fill="#eaf2ff" font-family="Segoe UI, Arial, sans-serif" font-size="14" font-weight="600">Risky sign-in — unresolved</text>
  <g transform="translate(700 338)" stroke="#9db8ff" stroke-width="2.5" opacity="0.5">
    <circle cx="15" cy="15" r="15" fill="none"/><line x1="8" y1="8" x2="22" y2="22"/><line x1="22" y1="8" x2="8" y2="22"/>
  </g>
  <text x="540" y="420" fill="#9db8ff" font-family="Segoe UI, Arial, sans-serif" font-size="20" font-weight="600" text-anchor="middle">Dismiss clicked. Still flagged as at risk.</text>
</svg>
